# xmcd
#
# Track frame offsets:
#	150
#	14531
#	29272
#	47359
#	63371
#	78952
#	96743
#	114671
#	131189
#	144731
#	163181
#	177888
#	190718
#	209627
#	225862
#
# Disc length: 3253 seconds
#
# Revision: 0
# Processed by: cddbd v1.5.2PL0 Copyright (c) Steve Scherf et al.
# Submitted via: audiograbber 1.83.01
#
DISCID=d00cb30f
DTITLE=SC8128 Sound Choice - Country Duets (SC)
DYEAR=1900
DGENRE=Karaoke Country
TTITLE0=Jim Reeves and Patsy Cline - Have You Ever Been Lonely (SC)
TTITLE1=Kenny Rogers and Dottie West - Everytime Two Fools Collide (SC)
TTITLE2=Kenny Rogers and Dolly Parton - Islands In The Stream (SC)
TTITLE3=Dolly Parton and Ricky Van Shelton - Rockin' Years (SC)
TTITLE4=Reba Mcentire and Vince Gill - The Heart Won'T Lie (SC)
TTITLE5=Lorrie Morgan and Keith Whitley - Til' A Tear Becomes A Rose (SC)
TTITLE6=Kenny Rogers and Kim Carnes - Don'T Fall In Love With A Dreamer (SC)
TTITLE7=Trisha Yearwood and Garth Brooks - Like We Never Had A Broken Heart (SC)
TTITLE8=Mattea and O'Brien - The Battle Hymn Of Love (SC)
TTITLE9=Eddie Rabbit and Crystal Gayle - You And I (SC)
TTITLE10=Barbara Mandrell and Lee Greenwood - To Me (SC)
TTITLE11=Lee Greenwood and Suzy Bogguss - Hopelessly Yours (SC)
TTITLE12=Dan Seals and Marie Osmond - Meet Me In Montana (SC)
TTITLE13=Dolly Parton and Collin Raye - Whenever Forever Comes (SC)
TTITLE14=David Frizell and Shelly West - You'Re The Reason God Made Oklahoma (SC)
EXTD=
EXTT0=
EXTT1=
EXTT2=
EXTT3=
EXTT4=
EXTT5=
EXTT6=
EXTT7=
EXTT8=
EXTT9=
EXTT10=
EXTT11=
EXTT12=
EXTT13=
EXTT14=
PLAYORDER=
